<mxfile host="app.diagrams.net" agent="Mozilla/5.0 (Windows NT 10.0; Win64; x64) AppleWebKit/537.36 (KHTML, like Gecko) Chrome/135.0.0.0 Safari/537.36 Edg/135.0.0.0" version="26.2.14">
  <diagram name="Page-1" id="w4k-F0wGFoPTyivTWEuk">
    <mxGraphModel dx="1034" dy="570" grid="1" gridSize="10" guides="1" tooltips="1" connect="1" arrows="1" fold="1" page="1" pageScale="1" pageWidth="827" pageHeight="1169" math="0" shadow="0">
      <root>
        <mxCell id="0" />
        <mxCell id="1" parent="0" />
        <mxCell id="UsS9Le5wtXBt1caLjqC7-1" value="" style="rounded=1;whiteSpace=wrap;html=1;" vertex="1" parent="1">
          <mxGeometry x="630" y="50" width="120" height="260" as="geometry" />
        </mxCell>
        <mxCell id="UsS9Le5wtXBt1caLjqC7-2" value="" style="rounded=1;whiteSpace=wrap;html=1;" vertex="1" parent="1">
          <mxGeometry x="110" y="100" width="120" height="140" as="geometry" />
        </mxCell>
        <mxCell id="UsS9Le5wtXBt1caLjqC7-3" value="" style="rounded=1;whiteSpace=wrap;html=1;" vertex="1" parent="1">
          <mxGeometry x="630" y="390" width="120" height="120" as="geometry" />
        </mxCell>
        <mxCell id="UsS9Le5wtXBt1caLjqC7-7" value="" style="endArrow=none;html=1;rounded=0;exitX=0;exitY=0.25;exitDx=0;exitDy=0;entryX=1;entryY=0.25;entryDx=0;entryDy=0;" edge="1" parent="1" source="UsS9Le5wtXBt1caLjqC7-2" target="UsS9Le5wtXBt1caLjqC7-2">
          <mxGeometry width="50" height="50" relative="1" as="geometry">
            <mxPoint x="390" y="320" as="sourcePoint" />
            <mxPoint x="440" y="270" as="targetPoint" />
          </mxGeometry>
        </mxCell>
        <mxCell id="UsS9Le5wtXBt1caLjqC7-9" value="" style="endArrow=none;html=1;rounded=0;exitX=-0.028;exitY=0.172;exitDx=0;exitDy=0;entryX=0.997;entryY=0.174;entryDx=0;entryDy=0;entryPerimeter=0;exitPerimeter=0;" edge="1" parent="1" source="UsS9Le5wtXBt1caLjqC7-1" target="UsS9Le5wtXBt1caLjqC7-1">
          <mxGeometry width="50" height="50" relative="1" as="geometry">
            <mxPoint x="630" y="80" as="sourcePoint" />
            <mxPoint x="750" y="80" as="targetPoint" />
          </mxGeometry>
        </mxCell>
        <mxCell id="UsS9Le5wtXBt1caLjqC7-10" value="" style="endArrow=none;html=1;rounded=0;exitX=0;exitY=0.25;exitDx=0;exitDy=0;entryX=1;entryY=0.25;entryDx=0;entryDy=0;" edge="1" parent="1">
          <mxGeometry width="50" height="50" relative="1" as="geometry">
            <mxPoint x="630" y="420" as="sourcePoint" />
            <mxPoint x="750" y="420" as="targetPoint" />
          </mxGeometry>
        </mxCell>
        <mxCell id="UsS9Le5wtXBt1caLjqC7-17" value="Use" style="endArrow=open;endSize=12;dashed=1;html=1;rounded=0;exitX=1.022;exitY=0.445;exitDx=0;exitDy=0;entryX=0.011;entryY=0.429;entryDx=0;entryDy=0;entryPerimeter=0;exitPerimeter=0;" edge="1" parent="1" source="UsS9Le5wtXBt1caLjqC7-2" target="UsS9Le5wtXBt1caLjqC7-1">
          <mxGeometry width="160" relative="1" as="geometry">
            <mxPoint x="150" y="170.25" as="sourcePoint" />
            <mxPoint x="550" y="159.75" as="targetPoint" />
          </mxGeometry>
        </mxCell>
        <mxCell id="UsS9Le5wtXBt1caLjqC7-19" value="emlementation" style="endArrow=block;endSize=16;endFill=0;html=1;rounded=0;entryX=0.5;entryY=1;entryDx=0;entryDy=0;exitX=0.5;exitY=0;exitDx=0;exitDy=0;" edge="1" parent="1" source="UsS9Le5wtXBt1caLjqC7-3" target="UsS9Le5wtXBt1caLjqC7-1">
          <mxGeometry width="160" relative="1" as="geometry">
            <mxPoint x="370" y="380" as="sourcePoint" />
            <mxPoint x="530" y="380" as="targetPoint" />
          </mxGeometry>
        </mxCell>
        <mxCell id="UsS9Le5wtXBt1caLjqC7-23" value="&lt;font style=&quot;font-size: 9px;&quot;&gt;-vegotablesPrice&lt;/font&gt;&lt;div&gt;&lt;font style=&quot;font-size: 9px;&quot;&gt;-MeetPrice&lt;/font&gt;&lt;/div&gt;&lt;div&gt;&lt;font style=&quot;font-size: 9px;&quot;&gt;-BreadPrice&lt;/font&gt;&lt;/div&gt;&lt;div&gt;&lt;font style=&quot;font-size: 9px;&quot;&gt;-CheesePrice&lt;/font&gt;&lt;/div&gt;&lt;div&gt;&lt;font style=&quot;font-size: 9px;&quot;&gt;+totalPrice&lt;/font&gt;&lt;/div&gt;&lt;div&gt;&lt;font style=&quot;font-size: 9px;&quot;&gt;&lt;br&gt;&lt;/font&gt;&lt;/div&gt;&lt;div&gt;&lt;font style=&quot;font-size: 9px;&quot;&gt;+getters/setters&lt;/font&gt;&lt;/div&gt;" style="text;whiteSpace=wrap;html=1;" vertex="1" parent="1">
          <mxGeometry x="120" y="130" width="100" height="70" as="geometry" />
        </mxCell>
        <mxCell id="UsS9Le5wtXBt1caLjqC7-24" value="" style="endArrow=none;html=1;rounded=0;entryX=0.011;entryY=0.817;entryDx=0;entryDy=0;entryPerimeter=0;" edge="1" parent="1" target="UsS9Le5wtXBt1caLjqC7-2">
          <mxGeometry width="50" height="50" relative="1" as="geometry">
            <mxPoint x="230" y="214" as="sourcePoint" />
            <mxPoint x="150" y="470" as="targetPoint" />
          </mxGeometry>
        </mxCell>
        <mxCell id="UsS9Le5wtXBt1caLjqC7-25" value="OrderCus" style="text;whiteSpace=wrap;html=1;" vertex="1" parent="1">
          <mxGeometry x="140" y="100" width="110" height="40" as="geometry" />
        </mxCell>
        <mxCell id="UsS9Le5wtXBt1caLjqC7-26" value="&lt;font&gt;&amp;nbsp; &amp;nbsp;&amp;lt;&amp;lt;interdace&amp;gt;&amp;gt;&lt;/font&gt;&lt;div&gt;&lt;font&gt;&amp;nbsp; &amp;nbsp;BuilderFactory&lt;/font&gt;&lt;/div&gt;" style="text;whiteSpace=wrap;html=1;" vertex="1" parent="1">
          <mxGeometry x="635" y="50" width="105" height="30" as="geometry" />
        </mxCell>
        <mxCell id="UsS9Le5wtXBt1caLjqC7-27" value="-reset()&lt;div&gt;-setvegetablesPrice&lt;/div&gt;&lt;div&gt;-set&lt;font size=&quot;1&quot;&gt;CheeseimageURL()&lt;/font&gt;&lt;/div&gt;&lt;div&gt;&lt;font size=&quot;1&quot;&gt;-setCheeseType()&lt;/font&gt;&lt;/div&gt;&lt;div&gt;&lt;font size=&quot;1&quot;&gt;-getCheeseType(String)&lt;/font&gt;&lt;/div&gt;&lt;div&gt;&lt;font size=&quot;1&quot;&gt;-getMeetType(String)&lt;/font&gt;&lt;/div&gt;&lt;div&gt;&lt;font size=&quot;1&quot;&gt;-getBreadType(String)&lt;/font&gt;&lt;/div&gt;&lt;div&gt;&lt;font size=&quot;1&quot;&gt;-getVegatablesPrice(int)&lt;/font&gt;&lt;/div&gt;&lt;div&gt;&lt;font size=&quot;1&quot;&gt;-getMeetPrice(int)&lt;/font&gt;&lt;/div&gt;&lt;div&gt;&lt;font size=&quot;1&quot;&gt;-getCheesePrice(int)&lt;/font&gt;&lt;/div&gt;&lt;div&gt;&lt;font size=&quot;1&quot;&gt;-getBreadImage(String)&lt;/font&gt;&lt;/div&gt;" style="text;whiteSpace=wrap;html=1;" vertex="1" parent="1">
          <mxGeometry x="635" y="90" width="120" height="200" as="geometry" />
        </mxCell>
        <mxCell id="UsS9Le5wtXBt1caLjqC7-28" value="orderbuilder" style="text;whiteSpace=wrap;html=1;" vertex="1" parent="1">
          <mxGeometry x="650" y="390" width="90" height="40" as="geometry" />
        </mxCell>
        <mxCell id="UsS9Le5wtXBt1caLjqC7-29" value="-order:orderCus" style="text;whiteSpace=wrap;html=1;" vertex="1" parent="1">
          <mxGeometry x="635" y="420" width="90" height="40" as="geometry" />
        </mxCell>
        <mxCell id="UsS9Le5wtXBt1caLjqC7-30" value="-getorder():Ordercus" style="text;whiteSpace=wrap;html=1;" vertex="1" parent="1">
          <mxGeometry x="630" y="450" width="130" height="40" as="geometry" />
        </mxCell>
        <mxCell id="UsS9Le5wtXBt1caLjqC7-31" value="" style="endArrow=none;html=1;rounded=0;entryX=1;entryY=0.5;entryDx=0;entryDy=0;" edge="1" parent="1" target="UsS9Le5wtXBt1caLjqC7-3">
          <mxGeometry width="50" height="50" relative="1" as="geometry">
            <mxPoint x="630" y="450" as="sourcePoint" />
            <mxPoint x="680" y="400" as="targetPoint" />
          </mxGeometry>
        </mxCell>
      </root>
    </mxGraphModel>
  </diagram>
</mxfile>
